<svg width="150" height="16" viewBox="0 0 150 16" fill="none" xmlns="http://www.w3.org/2000/svg">
    <path d="M5.85003 11.5323C4.7247 11.5323 3.72177 11.2964 2.84114 10.8246C1.96052 10.3528 1.26683 9.68186 0.760079 8.81172C0.253328 7.94157 0 6.9124 0 5.7242C0 4.54305 0.253328 3.52435 0.760079 2.66821C1.26683 1.81197 1.96052 1.15324 2.84114 0.691927C3.72177 0.230704 4.7247 0 5.85003 0C6.97527 0 7.93276 0.218465 8.72261 0.655301C9.51236 1.09214 10.1169 1.63904 10.5363 2.29601C10.9556 2.95297 11.1653 3.61699 11.1653 4.28796V4.3613H8.91131C8.91131 4.32635 8.90778 4.2862 8.90083 4.24076C8.89378 4.19532 8.88682 4.15165 8.87987 4.10974C8.789 3.49468 8.47447 2.98274 7.93628 2.57381C7.3981 2.16498 6.69569 1.96052 5.82907 1.96052C5.18601 1.96052 4.59896 2.09859 4.06773 2.37464C3.53659 2.65068 3.11023 3.06832 2.78875 3.62746C2.46718 4.18661 2.30648 4.88549 2.30648 5.7242C2.30648 6.56291 2.46541 7.26708 2.78347 7.8367C3.10152 8.40641 3.52778 8.83796 4.06254 9.13153C4.5972 9.42501 5.18601 9.5718 5.82907 9.5718C6.86344 9.5718 7.62352 9.33766 8.10931 8.86939C8.59501 8.40112 8.86235 7.85246 8.91131 7.22341H11.1653C11.1653 7.90142 10.9626 8.57239 10.5573 9.23632C10.1519 9.90033 9.55427 10.449 8.76452 10.8823C7.97477 11.3156 7.00327 11.5323 5.85003 11.5323Z" fill="white"/>
    <path d="M20.2233 11.5323C18.9653 11.5323 17.95 11.2387 17.1778 10.6517C16.4055 10.0645 16.0193 9.24679 16.0193 8.19842C16.0193 7.45058 16.2167 6.83201 16.6116 6.34278C17.0065 5.85355 17.5517 5.47439 18.2471 5.2053C18.9426 4.93621 19.7341 4.75975 20.6217 4.67583C21.9357 4.54305 22.8653 4.41379 23.4104 4.28796C23.9556 4.16213 24.2282 3.95599 24.2282 3.66938V3.64842C24.2282 3.08233 23.987 2.65244 23.5048 2.35887C23.0226 2.06539 22.3341 1.91861 21.4394 1.91861C20.4959 1.91861 19.7673 2.08459 19.2536 2.41655C18.7399 2.7486 18.483 3.27455 18.483 3.99439H16.2499C16.2499 3.14167 16.4719 2.41831 16.9157 1.82421C17.3595 1.23011 17.9728 0.777607 18.7556 0.466602C19.5384 0.155504 20.4365 0 21.4499 0C22.3795 0 23.2269 0.141594 23.9923 0.424596C24.7577 0.70769 25.3674 1.12876 25.8217 1.6879C26.2761 2.24704 26.5031 2.94249 26.5031 3.77425V9.08953C26.5031 9.34814 26.512 9.59804 26.5294 9.83913C26.5469 10.0803 26.5871 10.2952 26.6499 10.4839C26.7129 10.7006 26.788 10.8805 26.8753 11.0238C26.9627 11.1672 27.0344 11.2632 27.0903 11.3122H24.8257C24.7838 11.2702 24.7227 11.1811 24.6423 11.0449C24.5619 10.9085 24.4902 10.7495 24.4274 10.5678C24.3714 10.414 24.3295 10.2393 24.3015 10.0436C23.9032 10.4979 23.3528 10.8596 22.6503 11.1287C21.9479 11.3978 21.1389 11.5323 20.2233 11.5323ZM20.6951 9.64524C21.3451 9.64524 21.9392 9.54213 22.4773 9.3359C23.0155 9.12977 23.4436 8.81524 23.7617 8.39241C24.0796 7.96958 24.2387 7.43658 24.2387 6.79362V5.82907C23.8054 5.9549 23.3196 6.05802 22.7814 6.13832C22.2432 6.21871 21.6946 6.28687 21.1355 6.34278C20.1919 6.43365 19.4824 6.59787 19.0072 6.83553C18.5319 7.07318 18.2943 7.47154 18.2943 8.03068C18.2943 9.10705 19.0946 9.64524 20.6951 9.64524Z" fill="white"/>
    <path d="M36.3372 11.5323C35.4496 11.5323 34.6406 11.4047 33.9102 11.1496C33.1798 10.8945 32.5962 10.5154 32.1595 10.0122C31.7226 9.50893 31.5042 8.89035 31.5042 8.15651V7.87341H33.7687V8.08307C33.7687 8.59335 34.0029 8.97946 34.4711 9.2416C34.9394 9.50364 35.5824 9.63476 36.4001 9.63476C37.113 9.63476 37.7246 9.5246 38.2348 9.30447C38.745 9.08434 39.0002 8.73661 39.0002 8.26129C39.0002 7.75807 38.7503 7.39643 38.2506 7.1763C37.7508 6.95608 36.9942 6.76218 35.9808 6.59444C35.2469 6.46861 34.5515 6.28334 33.8945 6.03873C33.2375 5.79412 32.7011 5.45168 32.2852 5.01132C31.8693 4.57105 31.6614 3.99086 31.6614 3.27102C31.6614 2.57205 31.8711 1.97795 32.2905 1.48873C32.7098 0.9995 33.2742 0.629059 33.9836 0.377491C34.693 0.125831 35.481 0 36.3477 0C37.1795 0 37.95 0.132877 38.6594 0.398446C39.3688 0.664015 39.9402 1.05365 40.3735 1.56736C40.8069 2.08106 41.0236 2.70141 41.0236 3.42829V3.61699H38.7695V3.4702C38.7695 3.10681 38.6542 2.80795 38.4235 2.57381C38.1929 2.33968 37.8941 2.16674 37.5271 2.05492C37.1602 1.94309 36.7706 1.88717 36.3582 1.88717C35.9808 1.88717 35.6016 1.92732 35.2207 2.00772C34.8398 2.08811 34.5235 2.22433 34.2719 2.41655C34.0203 2.60877 33.8945 2.86915 33.8945 3.19759C33.8945 3.69386 34.1653 4.05206 34.707 4.27219C35.2486 4.49242 35.9668 4.68288 36.8614 4.84357C37.5883 4.9694 38.2838 5.14939 38.9477 5.38352C39.6117 5.61766 40.1568 5.95314 40.5832 6.38998C41.0096 6.82681 41.2227 7.41915 41.2227 8.16699C41.2227 8.93579 40.9938 9.56837 40.536 10.0645C40.0782 10.5608 39.4789 10.9295 38.738 11.1706C37.9971 11.4118 37.1969 11.5323 36.3372 11.5323Z" fill="white"/>
    <path d="M46.4226 15.8936V0.17822H48.6976V1.55169C49.1519 1.06237 49.6918 0.681448 50.3173 0.408925C50.9428 0.136308 51.5981 0 52.2831 0C53.1847 0 54.0199 0.221987 54.7887 0.665776C55.5576 1.10957 56.1778 1.75782 56.6496 2.61053C57.1214 3.46325 57.3573 4.50113 57.3573 5.7242C57.3573 6.98231 57.1266 8.04292 56.6654 8.90611C56.2041 9.7693 55.589 10.4228 54.8202 10.8665C54.0513 11.3104 53.2057 11.5323 52.2831 11.5323C51.5981 11.5323 50.9428 11.3908 50.3173 11.1077C49.6918 10.8246 49.1519 10.4315 48.6976 9.92824V15.8936H46.4226ZM48.708 6.43718C48.708 7.01023 48.8548 7.52569 49.1484 7.98348C49.442 8.44127 49.8281 8.803 50.3068 9.06857C50.7857 9.33423 51.2976 9.46702 51.8428 9.46702C52.7374 9.46702 53.4905 9.1612 54.102 8.54967C54.7136 7.93805 55.0194 6.99632 55.0194 5.7242C55.0194 4.44522 54.7136 3.5034 54.102 2.89882C53.4905 2.29424 52.7374 1.99195 51.8428 1.99195C51.2976 1.99195 50.7873 2.12307 50.3121 2.38512C49.8368 2.64725 49.4507 3.00546 49.1537 3.45972C48.8566 3.91399 48.708 4.4277 48.708 5.00084H48.6976V6.3323H48.708V6.43718Z" fill="white"/>
    <path d="M73.4604 7.81055C73.4047 8.4116 73.1599 8.99875 72.7269 9.5718C72.2929 10.1449 71.6744 10.6167 70.8714 10.9872C70.0675 11.3576 69.0883 11.5428 67.9357 11.5428C66.7823 11.5428 65.7671 11.2982 64.8899 10.809C64.0127 10.3196 63.3296 9.64172 62.8403 8.77509C62.3511 7.90838 62.1064 6.90887 62.1064 5.77668C62.1064 4.63039 62.3546 3.62394 62.8508 2.75732C63.347 1.8906 64.0338 1.21444 64.9109 0.728646C65.7881 0.242944 66.7997 0 67.9459 0C69.1059 0 70.1111 0.244706 70.9604 0.733932C71.8089 1.22316 72.4645 1.89765 72.9253 2.75732C73.3871 3.61699 73.618 4.60592 73.618 5.7242C73.618 5.85003 73.6143 6.0021 73.6069 6.18032C73.6004 6.35854 73.5902 6.47909 73.5753 6.54196H64.3814C64.5212 7.51345 64.9039 8.27186 65.5295 8.817C66.155 9.36214 66.9815 9.63476 68.009 9.63476C68.7285 9.63476 69.3173 9.54036 69.7754 9.35166C70.2335 9.16296 70.5775 8.92883 70.8084 8.64926C71.0383 8.36969 71.1682 8.09012 71.196 7.81055H73.4604ZM67.9672 1.88717C67.0234 1.88717 66.2371 2.14226 65.6081 2.65245C64.979 3.16272 64.5807 3.86856 64.4129 4.77023H71.2377C71.1821 3.98743 70.8816 3.31118 70.3364 2.74156C69.7912 2.17194 69.0011 1.88717 67.9672 1.88717Z" fill="white"/>
    <path d="M78.8284 11.3122V0.17822H81.103V1.65647C81.4043 1.16724 81.8123 0.76889 82.3297 0.461315C82.8471 0.153834 83.487 0 84.2482 0C84.6961 0 85.0577 0.034959 85.3331 0.104875C85.6095 0.174791 85.7792 0.230704 85.8422 0.272616L85.36 2.41136C85.2896 2.3624 85.1486 2.29953 84.9354 2.22266C84.7221 2.14569 84.4263 2.10731 84.0489 2.10731C83.2876 2.10731 82.6914 2.282 82.262 2.63149C81.8318 2.98098 81.5314 3.41605 81.3598 3.93671C81.1892 4.45746 81.103 4.97989 81.103 5.50407V11.3122H78.8284Z" fill="white"/>
    <path d="M94.5224 11.5323C93.635 11.5323 92.8264 11.4047 92.0957 11.1496C91.365 10.8945 90.7818 10.5154 90.345 10.0122C89.9083 9.50893 89.6895 8.89035 89.6895 8.15651V7.87341H91.9538V8.08307C91.9538 8.59335 92.1884 8.97946 92.6567 9.2416C93.125 9.50364 93.7676 9.63476 94.5854 9.63476C95.2985 9.63476 95.9105 9.5246 96.4205 9.30447C96.9305 9.08434 97.1855 8.73661 97.1855 8.26129C97.1855 7.75807 96.936 7.39643 96.4362 7.1763C95.9364 6.95608 95.1798 6.76218 94.1663 6.59444C93.4328 6.46861 92.7374 6.28334 92.0799 6.03873C91.4225 5.79412 90.8866 5.45168 90.4702 5.01132C90.0548 4.57105 89.8471 3.99086 89.8471 3.27102C89.8471 2.57205 90.0567 1.97795 90.4758 1.48873C90.8949 0.9995 91.4596 0.629059 92.169 0.377491C92.8783 0.125831 93.6665 0 94.5335 0C95.3652 0 96.1358 0.132877 96.8452 0.398446C97.5545 0.664015 98.1257 1.05365 98.5588 1.56736C98.9927 2.08106 99.2088 2.70141 99.2088 3.42829V3.61699H96.9546V3.4702C96.9546 3.10681 96.8396 2.80795 96.6087 2.57381C96.3788 2.33968 96.0793 2.16674 95.713 2.05492C95.3458 1.94309 94.9563 1.88717 94.5437 1.88717C94.1663 1.88717 93.787 1.92732 93.4059 2.00772C93.0248 2.08811 92.7086 2.22433 92.4574 2.41655C92.2061 2.60877 92.0799 2.86915 92.0799 3.19759C92.0799 3.69386 92.3507 4.05206 92.8922 4.27219C93.4338 4.49242 94.1524 4.68288 95.0472 4.84357C95.7742 4.9694 96.4696 5.14939 97.1335 5.38352C97.7975 5.61766 98.3427 5.95314 98.7683 6.38998C99.1949 6.82681 99.4081 7.41915 99.4081 8.16699C99.4081 8.93579 99.1791 9.56837 98.722 10.0645C98.2639 10.5608 97.6639 10.9295 96.9231 11.1706C96.1831 11.4118 95.3829 11.5323 94.5224 11.5323Z" fill="white"/>
    <path d="M105.699 11.3122L103.34 0.178223H105.699L107.345 9.59276L109.819 0.178223H112.293L114.799 9.59276L116.424 0.178223H118.783L116.434 11.3122H113.3L111.056 2.5791L108.854 11.3122H105.699Z" fill="white"/>
    <path d="M127.159 11.5323C125.901 11.5323 124.886 11.2387 124.113 10.6517C123.341 10.0645 122.955 9.24679 122.955 8.19842C122.955 7.45058 123.153 6.83201 123.548 6.34278C123.943 5.85355 124.487 5.47439 125.182 5.2053C125.878 4.93621 126.67 4.75975 127.557 4.67583C128.871 4.54305 129.801 4.41379 130.346 4.28796C130.892 4.16213 131.164 3.95599 131.164 3.66938V3.64842C131.164 3.08233 130.923 2.65244 130.44 2.35887C129.958 2.06539 129.27 1.91861 128.375 1.91861C127.432 1.91861 126.703 2.08459 126.189 2.41655C125.676 2.7486 125.419 3.27455 125.419 3.99439H123.186C123.186 3.14167 123.408 2.41831 123.852 1.82421C124.295 1.23011 124.909 0.777607 125.691 0.466602C126.474 0.155504 127.373 0 128.386 0C129.315 0 130.163 0.141594 130.928 0.424596C131.694 0.70769 132.303 1.12876 132.757 1.6879C133.212 2.24704 133.439 2.94249 133.439 3.77425V9.08953C133.439 9.34814 133.448 9.59804 133.465 9.83913C133.482 10.0803 133.522 10.2952 133.585 10.4839C133.648 10.7006 133.723 10.8805 133.812 11.0238C133.899 11.1672 133.97 11.2632 134.026 11.3122H131.761C131.72 11.2702 131.658 11.1811 131.578 11.0449C131.498 10.9085 131.426 10.7495 131.363 10.5678C131.307 10.414 131.265 10.2393 131.237 10.0436C130.839 10.4979 130.289 10.8596 129.586 11.1287C128.883 11.3978 128.075 11.5323 127.159 11.5323ZM127.63 9.64524C128.28 9.64524 128.875 9.54213 129.413 9.3359C129.951 9.12977 130.38 8.81524 130.697 8.39241C131.016 7.96958 131.174 7.43658 131.174 6.79362V5.82907C130.741 5.9549 130.255 6.05802 129.717 6.13832C129.179 6.21871 128.63 6.28687 128.071 6.34278C127.128 6.43365 126.418 6.59787 125.943 6.83553C125.468 7.07318 125.23 7.47154 125.23 8.03068C125.23 9.10705 126.03 9.64524 127.63 9.64524Z" fill="white"/>
    <path d="M138.89 15.8936V0.17822H141.166V1.55169C141.62 1.06237 142.16 0.681448 142.786 0.408925C143.411 0.136308 144.066 0 144.751 0C145.653 0 146.488 0.221987 147.257 0.665776C148.026 1.10957 148.646 1.75782 149.118 2.61053C149.589 3.46325 149.825 4.50113 149.825 5.7242C149.825 6.98231 149.594 8.04292 149.134 8.90611C148.672 9.7693 148.057 10.4228 147.288 10.8665C146.52 11.3104 145.673 11.5323 144.751 11.5323C144.066 11.5323 143.411 11.3908 142.786 11.1077C142.16 10.8246 141.62 10.4315 141.166 9.92824V15.8936H138.89ZM141.176 6.43718C141.176 7.01023 141.322 7.52569 141.616 7.98348C141.91 8.44127 142.296 8.803 142.774 9.06857C143.254 9.33423 143.766 9.46702 144.311 9.46702C145.205 9.46702 145.959 9.1612 146.57 8.54967C147.182 7.93805 147.487 6.99632 147.487 5.7242C147.487 4.44522 147.182 3.5034 146.57 2.89882C145.959 2.29424 145.205 1.99195 144.311 1.99195C143.766 1.99195 143.256 2.12307 142.78 2.38512C142.304 2.64725 141.919 3.00546 141.622 3.45972C141.324 3.91399 141.176 4.4277 141.176 5.00084H141.166V6.3323H141.176V6.43718Z" fill="white"/>
</svg>
