<svg xmlns="http://www.w3.org/2000/svg" width="184" height="18.528" viewBox="0 0 184 18.528">
  <g id="Group_1306" data-name="Group 1306" transform="translate(-4774 -39.592)">
    <g id="Group_1305" data-name="Group 1305">
      <path id="Path_671" data-name="Path 671" d="M4780.665,53.02a7.024,7.024,0,0,1-3.375-.813,6.054,6.054,0,0,1-2.4-2.33,7.023,7.023,0,0,1-.886-3.608,6.919,6.919,0,0,1,.886-3.589,5.964,5.964,0,0,1,2.4-2.294,7.152,7.152,0,0,1,3.375-.794,6.9,6.9,0,0,1,2.531.434,5.81,5.81,0,0,1,1.884,1.155,5.307,5.307,0,0,1,1.181,1.584,3.993,3.993,0,0,1,.409,1.719v.085H4784.6a.92.92,0,0,0-.012-.141c-.008-.052-.016-.107-.025-.165a2.649,2.649,0,0,0-.623-1.436,3.581,3.581,0,0,0-1.37-.973,5.221,5.221,0,0,0-4.164.165,4.023,4.023,0,0,0-1.664,1.578,5.154,5.154,0,0,0-.629,2.672,5.288,5.288,0,0,0,.623,2.679,4.115,4.115,0,0,0,1.657,1.62,4.769,4.769,0,0,0,2.257.544,4.974,4.974,0,0,0,2.177-.416,3.042,3.042,0,0,0,1.29-1.106,3.117,3.117,0,0,0,.483-1.486h2.067a4.26,4.26,0,0,1-.392,1.755,4.962,4.962,0,0,1-1.149,1.59,5.609,5.609,0,0,1-1.877,1.143A7.2,7.2,0,0,1,4780.665,53.02Z" fill="#715ff5"/>
      <path id="Path_672" data-name="Path 672" d="M4798.851,53.02a6.64,6.64,0,0,1-2.587-.465,3.85,3.85,0,0,1-1.718-1.339,3.567,3.567,0,0,1-.612-2.1A3.352,3.352,0,0,1,4794.6,47a4.293,4.293,0,0,1,1.859-1.327,10.322,10.322,0,0,1,2.789-.636,30.684,30.684,0,0,0,3.412-.483q1.014-.239,1.014-.777v-.037a1.835,1.835,0,0,0-.917-1.681,5.164,5.164,0,0,0-2.654-.557,5.28,5.28,0,0,0-2.812.63,2.223,2.223,0,0,0-1,2.036h-2.054a4.078,4.078,0,0,1,.746-2.476,4.659,4.659,0,0,1,2.073-1.559,8.875,8.875,0,0,1,5.931-.055,4.6,4.6,0,0,1,2.031,1.431,3.65,3.65,0,0,1,.752,2.342v6.481c0,.286.012.563.037.832a3.937,3.937,0,0,0,.122.709,2.774,2.774,0,0,0,.244.594,1.635,1.635,0,0,0,.221.311h-2.092a1.4,1.4,0,0,1-.183-.287,3.832,3.832,0,0,1-.232-.532,3.078,3.078,0,0,1-.135-.617,6.049,6.049,0,0,1-.049-.777l.343.232a3.6,3.6,0,0,1-1.108,1.162,5.705,5.705,0,0,1-1.755.783A8.82,8.82,0,0,1,4798.851,53.02Zm.33-1.871a6.391,6.391,0,0,0,2.275-.385,3.65,3.65,0,0,0,1.614-1.144,2.937,2.937,0,0,0,.6-1.884v-2.58l.466.783a9.7,9.7,0,0,1-1.951.495q-1.169.191-2.44.312a7.994,7.994,0,0,0-2.783.648,1.659,1.659,0,0,0-.935,1.6,1.84,1.84,0,0,0,.771,1.608A4.177,4.177,0,0,0,4799.181,51.149Z" fill="#715ff5"/>
      <path id="Path_673" data-name="Path 673" d="M4818.578,53.02a8.9,8.9,0,0,1-2.171-.251,5.7,5.7,0,0,1-1.736-.733,3.514,3.514,0,0,1-1.15-1.193,3.186,3.186,0,0,1-.41-1.627v-.379h2.092v.269a1.645,1.645,0,0,0,.917,1.511,5.093,5.093,0,0,0,2.507.52,7.1,7.1,0,0,0,1.749-.2,2.806,2.806,0,0,0,1.217-.6,1.307,1.307,0,0,0,.446-1.014,1.489,1.489,0,0,0-.948-1.45,11.958,11.958,0,0,0-2.831-.752,15.23,15.23,0,0,1-1.883-.446,6.427,6.427,0,0,1-1.584-.716,3.358,3.358,0,0,1-1.089-1.094,3.265,3.265,0,0,1,.306-3.584,4.406,4.406,0,0,1,1.9-1.259,7.769,7.769,0,0,1,2.666-.434,7.341,7.341,0,0,1,2.617.452,4.582,4.582,0,0,1,1.927,1.315,3.176,3.176,0,0,1,.727,2.121v.245h-2.079v-.183a1.6,1.6,0,0,0-.452-1.168,2.79,2.79,0,0,0-1.174-.685,5.123,5.123,0,0,0-1.541-.226,7.07,7.07,0,0,0-1.517.164,3.078,3.078,0,0,0-1.235.545,1.242,1.242,0,0,0-.49,1.04,1.328,1.328,0,0,0,.459,1.057,3.5,3.5,0,0,0,1.3.649,18.562,18.562,0,0,0,1.975.458,16.764,16.764,0,0,1,1.92.459,6.747,6.747,0,0,1,1.6.7,3.227,3.227,0,0,1,1.088,1.083,3.016,3.016,0,0,1,.4,1.6,3.129,3.129,0,0,1-.434,1.664,3.626,3.626,0,0,1-1.2,1.186,5.863,5.863,0,0,1-1.761.715A9.1,9.1,0,0,1,4818.578,53.02Z" fill="#715ff5"/>
      <path id="Path_674" data-name="Path 674" d="M4831.738,58.12V39.787h2.079V58.12Zm6.347-5.1a5.614,5.614,0,0,1-2.813-.74,5.9,5.9,0,0,1-2.122-2.036,5.453,5.453,0,0,1-.813-2.96v-.122l1.492-.037v.11a3.473,3.473,0,0,0,.557,1.92,4.1,4.1,0,0,0,1.461,1.382,3.87,3.87,0,0,0,1.944.514,3.83,3.83,0,0,0,2.869-1.18,5,5,0,0,0,1.143-3.6,4.99,4.99,0,0,0-1.138-3.6,3.843,3.843,0,0,0-2.874-1.168,3.916,3.916,0,0,0-1.944.508,4.094,4.094,0,0,0-1.461,1.364,3.434,3.434,0,0,0-.557,1.919l-1.492-.048a5.355,5.355,0,0,1,.813-2.948,5.829,5.829,0,0,1,4.935-2.7,5.6,5.6,0,0,1,5.051,3.045,7.552,7.552,0,0,1,.807,3.632,7.845,7.845,0,0,1-.794,3.687,5.56,5.56,0,0,1-2.129,2.287A5.722,5.722,0,0,1,4838.085,53.02Z" fill="#715ff5"/>
      <path id="Path_675" data-name="Path 675" d="M4852.259,47.113V45.254H4862.3l-.367.612V45.6a4.52,4.52,0,0,0-.471-2.061,3.63,3.63,0,0,0-1.4-1.5,4.37,4.37,0,0,0-2.3-.563,4.9,4.9,0,0,0-2.434.587,4.136,4.136,0,0,0-1.639,1.657,5.229,5.229,0,0,0-.587,2.55,5.535,5.535,0,0,0,.569,2.593,3.984,3.984,0,0,0,1.62,1.675,5.034,5.034,0,0,0,2.5.587,6.609,6.609,0,0,0,1.786-.214,3.9,3.9,0,0,0,1.253-.575,2.748,2.748,0,0,0,.753-.788,2.135,2.135,0,0,0,.3-.856h2.079a3.8,3.8,0,0,1-.489,1.553,4.774,4.774,0,0,1-1.211,1.4,6.111,6.111,0,0,1-1.92,1.009,8.262,8.262,0,0,1-2.617.379,6.8,6.8,0,0,1-3.449-.856,6.141,6.141,0,0,1-2.342-2.373,7.584,7.584,0,0,1,.006-6.989,6.192,6.192,0,0,1,2.36-2.367,6.839,6.839,0,0,1,3.437-.855,6.57,6.57,0,0,1,3.412.855,5.838,5.838,0,0,1,2.226,2.343,7.142,7.142,0,0,1,.783,3.381c0,.13,0,.3-.012.514a2.863,2.863,0,0,1-.037.428Z" fill="#715ff5"/>
      <path id="Path_676" data-name="Path 676" d="M4871.8,52.775V39.787h2.079v3.987l-.685-.245a5.036,5.036,0,0,1,.367-1.424,4.369,4.369,0,0,1,.813-1.272,3.723,3.723,0,0,1,1.3-.9,4.6,4.6,0,0,1,1.834-.336,5.225,5.225,0,0,1,1.279.128,3.04,3.04,0,0,1,.617.2l-.538,2.042a2.428,2.428,0,0,0-.5-.22,3.235,3.235,0,0,0-1.057-.135,3.463,3.463,0,0,0-1.682.367,2.849,2.849,0,0,0-1.052.972,4.1,4.1,0,0,0-.544,1.315,6.421,6.421,0,0,0-.159,1.407v7.105Z" fill="#715ff5"/>
      <path id="Path_677" data-name="Path 677" d="M4890.772,53.02a8.894,8.894,0,0,1-2.171-.251,5.706,5.706,0,0,1-1.736-.733,3.516,3.516,0,0,1-1.15-1.193,3.2,3.2,0,0,1-.41-1.627v-.379h2.092v.269a1.646,1.646,0,0,0,.917,1.511,5.1,5.1,0,0,0,2.507.52,7.1,7.1,0,0,0,1.749-.2,2.8,2.8,0,0,0,1.216-.6,1.306,1.306,0,0,0,.447-1.014,1.489,1.489,0,0,0-.948-1.45,11.971,11.971,0,0,0-2.831-.752,15.217,15.217,0,0,1-1.883-.446,6.435,6.435,0,0,1-1.584-.716,3.358,3.358,0,0,1-1.089-1.094,3.264,3.264,0,0,1,.306-3.584,4.4,4.4,0,0,1,1.9-1.259,7.769,7.769,0,0,1,2.666-.434,7.346,7.346,0,0,1,2.617.452,4.574,4.574,0,0,1,1.926,1.315,3.172,3.172,0,0,1,.728,2.121v.245h-2.079v-.183a1.6,1.6,0,0,0-.452-1.168,2.8,2.8,0,0,0-1.174-.685,5.125,5.125,0,0,0-1.542-.226,7.065,7.065,0,0,0-1.516.164,3.084,3.084,0,0,0-1.235.545,1.244,1.244,0,0,0-.489,1.04,1.326,1.326,0,0,0,.458,1.057,3.494,3.494,0,0,0,1.3.649,18.517,18.517,0,0,0,1.975.458,16.879,16.879,0,0,1,1.92.459,6.747,6.747,0,0,1,1.6.7,3.246,3.246,0,0,1,1.088,1.083,3.021,3.021,0,0,1,.4,1.6,3.129,3.129,0,0,1-.434,1.664,3.626,3.626,0,0,1-1.2,1.186,5.868,5.868,0,0,1-1.761.715A9.1,9.1,0,0,1,4890.772,53.02Z" fill="#715ff5"/>
      <path id="Path_678" data-name="Path 678" d="M4905.24,52.775l-2.825-12.988h2.165l2.3,12.071h-.379l3.4-12.071h1.847l-3.583,12.988Zm8.781,0-3.632-12.988h1.847l3.436,12.071h-.379l2.275-12.071h2.165l-2.8,12.988Z" fill="#715ff5"/>
      <path id="Path_679" data-name="Path 679" d="M4931.033,53.02a6.644,6.644,0,0,1-2.587-.465,3.851,3.851,0,0,1-1.718-1.339,3.564,3.564,0,0,1-.612-2.1,3.354,3.354,0,0,1,.661-2.121,4.3,4.3,0,0,1,1.859-1.327,10.322,10.322,0,0,1,2.789-.636,30.679,30.679,0,0,0,3.412-.483q1.014-.239,1.014-.777v-.037a1.835,1.835,0,0,0-.917-1.681,5.165,5.165,0,0,0-2.654-.557,5.282,5.282,0,0,0-2.812.63,2.223,2.223,0,0,0-1,2.036h-2.054a4.088,4.088,0,0,1,.746-2.476,4.661,4.661,0,0,1,2.073-1.559,8.875,8.875,0,0,1,5.931-.055,4.6,4.6,0,0,1,2.031,1.431,3.644,3.644,0,0,1,.752,2.342v6.481q0,.429.037.832a3.937,3.937,0,0,0,.122.709,2.724,2.724,0,0,0,.244.594,1.613,1.613,0,0,0,.221.311h-2.092a1.4,1.4,0,0,1-.183-.287,3.775,3.775,0,0,1-.232-.532,3.18,3.18,0,0,1-.135-.617,6.14,6.14,0,0,1-.049-.777l.343.232a3.6,3.6,0,0,1-1.107,1.162,5.713,5.713,0,0,1-1.756.783A8.822,8.822,0,0,1,4931.033,53.02Zm.33-1.871a6.392,6.392,0,0,0,2.275-.385,3.65,3.65,0,0,0,1.614-1.144,2.94,2.94,0,0,0,.6-1.884v-2.58l.466.783a9.7,9.7,0,0,1-1.951.495q-1.169.191-2.44.312a7.991,7.991,0,0,0-2.783.648,1.659,1.659,0,0,0-.935,1.6,1.839,1.839,0,0,0,.771,1.608A4.176,4.176,0,0,0,4931.363,51.149Z" fill="#715ff5"/>
      <path id="Path_680" data-name="Path 680" d="M4945.794,58.12V39.787h2.08V58.12Zm6.348-5.1a5.617,5.617,0,0,1-2.813-.74,5.9,5.9,0,0,1-2.122-2.036,5.445,5.445,0,0,1-.813-2.96v-.122l1.492-.037v.11a3.48,3.48,0,0,0,.556,1.92,4.114,4.114,0,0,0,1.462,1.382,3.868,3.868,0,0,0,1.945.514,3.824,3.824,0,0,0,2.867-1.18,5,5,0,0,0,1.144-3.6,5,5,0,0,0-1.137-3.6,3.848,3.848,0,0,0-2.874-1.168,3.914,3.914,0,0,0-1.945.508,4.109,4.109,0,0,0-1.462,1.364,3.441,3.441,0,0,0-.556,1.919l-1.492-.048a5.347,5.347,0,0,1,.813-2.948,5.829,5.829,0,0,1,4.935-2.7,5.6,5.6,0,0,1,5.051,3.045,7.546,7.546,0,0,1,.807,3.632,7.839,7.839,0,0,1-.795,3.687,5.558,5.558,0,0,1-2.128,2.287A5.725,5.725,0,0,1,4952.142,53.02Z" fill="#715ff5"/>
    </g>
  </g>
</svg>
