<?xml version="1.0" standalone="no"?>
<!DOCTYPE svg PUBLIC "-//W3C//DTD SVG 20010904//EN"
 "http://www.w3.org/TR/2001/REC-SVG-20010904/DTD/svg10.dtd">
<svg version="1.0" xmlns="http://www.w3.org/2000/svg"
 width="24.000000pt" height="24.000000pt" viewBox="0 0 24.000000 24.000000"
 preserveAspectRatio="xMidYMid meet">

<g transform="translate(0.000000,24.000000) scale(0.100000,-0.100000)" stroke="none">
<path d="M64 211 c-60 -37 -69 -124 -18 -172 37 -35 113 -34 149 2 27 27 46
99 26 99 -6 0 -11 -12 -11 -26 0 -37 -50 -84 -90 -84 -22 0 -41 9 -61 29 -40
40 -39 82 1 123 27 27 36 30 70 25 40 -5 54 5 24 17 -28 11 -58 6 -90 -13z"/>
<path d="M168 163 c-40 -40 -49 -45 -63 -33 -25 21 -31 2 -7 -22 l22 -22 55
54 c52 51 65 70 47 70 -4 0 -28 -21 -54 -47z"/>
</g>
</svg>
