<?xml version="1.0" encoding="UTF-8"?>
<svg id="Layer_2" data-name="Layer 2" xmlns="http://www.w3.org/2000/svg" viewBox="0 0 27.5 27.47">
  <g id="Layer_1-2" data-name="Layer 1">
    <path class="cls-1" d="M4.08,18.96c-.31-.67-.58-1.37-.96-2-.15-.24-.55-.38-.87-.47-.42-.11-.86-.13-1.29-.19-.64-.09-.94-.43-.95-1.08,0-1,0-2,0-2.99,0-.64,.32-.98,.96-1.06,.43-.06,.87-.12,1.3-.18,.57-.08,.99-.38,1.22-.91,.15-.34,.29-.68,.43-1.02,.21-.51,.14-.99-.18-1.43-.28-.39-.58-.76-.86-1.15-.36-.5-.34-.97,.09-1.4,.71-.72,1.43-1.43,2.15-2.14,.42-.41,.88-.44,1.36-.09,.4,.29,.79,.59,1.18,.89,.45,.34,.95,.4,1.47,.2,1.69-.63,1.75-.7,1.99-2.49C11.3,.12,11.43,0,12.78,0c.83,0,1.67,0,2.5,0,.59,0,.95,.31,1.04,.89,.07,.46,.13,.92,.18,1.38,.08,.62,.43,1.01,.98,1.31,1.14,.63,2.1,.51,3.09-.36,1.06-.93,1.25-.86,2.25,.14,.57,.57,1.15,1.14,1.71,1.71,.45,.46,.48,.91,.09,1.43-.28,.37-.58,.73-.83,1.12-.14,.22-.27,.49-.3,.74-.13,1.19,.89,2.48,2.06,2.66,.35,.05,.7,.1,1.05,.15,.58,.09,.9,.44,.9,1.03,0,1.01,0,2.02,0,3.03,0,.62-.3,.96-.91,1.06-.43,.07-.86,.12-1.3,.18-.56,.07-.97,.37-1.19,.89-.75,1.82-.89,1.82,.38,3.42,.59,.74,.55,1.11-.11,1.77-.64,.64-1.28,1.28-1.92,1.91-.5,.49-.93,.52-1.49,.1-.33-.25-.65-.5-.98-.74-.43-.32-.9-.39-1.4-.2-.42,.16-.84,.33-1.25,.52-.49,.23-.78,.62-.85,1.17-.05,.41-.11,.81-.17,1.22-.09,.61-.44,.92-1.05,.92-1.01,0-2.02,0-3.03,0-.61,0-.95-.31-1.04-.93-.06-.41-.11-.81-.17-1.22-.08-.54-.37-.94-.86-1.16-.41-.19-.83-.36-1.25-.52-.48-.18-.94-.12-1.36,.18-.37,.26-.72,.55-1.08,.81-.48,.35-.93,.32-1.36-.1-.72-.71-1.44-1.42-2.15-2.14-.41-.42-.44-.9-.1-1.37,.26-.36,.57-.71,.8-1.09,.17-.27,.26-.59,.42-.96ZM13.9,8.55c-2.8-.13-5.3,2.16-5.43,4.98-.14,2.93,2.08,5.43,4.95,5.58,3.01,.15,5.5-2.1,5.63-5.08,.13-2.91-2.16-5.34-5.15-5.48Z"/>
  </g>
</svg>