<?xml version="1.0" encoding="utf-8"?>
<!-- Generator: Adobe Illustrator 25.4.1, SVG Export Plug-In . SVG Version: 6.00 Build 0)  -->
<svg version="1.1" id="Layer_1" xmlns="http://www.w3.org/2000/svg" xmlns:xlink="http://www.w3.org/1999/xlink" x="0px" y="0px"
	 viewBox="0 0 42 40" style="enable-background:new 0 0 42 40;" xml:space="preserve">
<style type="text/css">
	.st0{fill:#715FF5;}
	.st1{fill:#FF6666;}
</style>
<g>
	<g>
		<g>
			<path class="st1" d="M17.27,21.89c-1.04,0-1.89-0.85-1.89-1.89c0-1.04,0.85-1.89,1.89-1.89h1.07l-1.17-1.65
				c-1.91,0.05-3.45,1.62-3.45,3.54c0,1.96,1.59,3.55,3.55,3.55h4.95l-1.18-1.66H17.27z"/>
			<path class="st1" d="M28.28,20c0-1.96-1.59-3.55-3.55-3.55h-4.95l1.18,1.66h3.77c1.04,0,1.89,0.85,1.89,1.89
				c0,1.04-0.85,1.89-1.89,1.89h-1.07l1.17,1.65C26.74,23.49,28.28,21.92,28.28,20z"/>
			<path class="st1" d="M25.37,26.59c-0.15,0-0.29-0.07-0.39-0.2l-8.73-12.24c-0.15-0.21-0.1-0.51,0.11-0.66
				c0.21-0.15,0.51-0.1,0.66,0.11l8.73,12.24c0.15,0.21,0.1,0.51-0.11,0.66C25.56,26.57,25.46,26.59,25.37,26.59z"/>
		</g>
	</g>
</g>
</svg>
