<?xml version="1.0" encoding="UTF-8"?>
<svg id="Layer_2" data-name="Layer 2" xmlns="http://www.w3.org/2000/svg" viewBox="0 0 24.42 18.89">
  <defs>
    <style>
      .cls-1 {
        fill: #f7fcfe;
      }
    </style>
  </defs>
  <g id="Layer_1-2" data-name="Layer 1">
    <path class="cls-1" d="M24.42,8.45l-4.17-.83-5.72-1.2-.84-5.38h.51c.29,0,.52-.23,.52-.52s-.23-.52-.52-.52H3.76c-.29,0-.52,.23-.52,.52s.23,.52,.52,.52h.4l-.47,3.11-1.39-.29-.63,3.76,.19,1.76c-1.14,.99-1.86,2.46-1.86,4.09,0,3,2.43,5.43,5.43,5.43,2.56,0,4.7-1.77,5.28-4.16l4.34,.11c0,.1-.01,.19-.01,.29,0,2.07,1.68,3.76,3.76,3.76s3.76-1.68,3.76-3.76c0-.38-.06-.74-.16-1.09l2.04-1.83v-3.76Zm-10.77-2.21l-5.49-1.15,.17-4.04h4.51l.81,5.19ZM5,1.04h2.49l-.16,3.87-2.82-.59,.49-3.28Z"/>
  </g>
</svg>