<svg width="30" height="30" viewBox="0 0 30 30" fill="none" xmlns="http://www.w3.org/2000/svg">
<path d="M13.5022 21.4657C13.6176 21.4658 13.7319 21.4883 13.8384 21.5319C13.945 21.5755 14.0418 21.6392 14.1233 21.7196C14.2047 21.7999 14.2693 21.8952 14.3133 22.0001C14.3573 22.105 14.3799 22.2174 14.3797 22.3308C14.3796 22.4443 14.3567 22.5566 14.3124 22.6613C14.2681 22.7661 14.2032 22.8612 14.1215 22.9413C14.0398 23.0214 13.9428 23.0849 13.8361 23.1282C13.7294 23.1715 13.6151 23.1937 13.4997 23.1935C13.2667 23.1932 13.0433 23.1019 12.8787 22.9396C12.7142 22.7774 12.6219 22.5575 12.6222 22.3284C12.6226 22.0992 12.7155 21.8796 12.8805 21.7178C13.0455 21.556 13.2692 21.4653 13.5022 21.4657ZM27.2825 16.1236C27.1671 16.1235 27.0528 16.1011 26.9462 16.0576C26.8396 16.0141 26.7428 15.9504 26.6613 15.8701C26.5797 15.7899 26.5151 15.6946 26.471 15.5897C26.4269 15.4849 26.4042 15.3725 26.4043 15.2591C26.4044 15.1456 26.4272 15.0333 26.4714 14.9285C26.5157 14.8237 26.5805 14.7285 26.6621 14.6484C26.7438 14.5682 26.8407 14.5046 26.9474 14.4613C27.054 14.418 27.1683 14.3957 27.2837 14.3958C27.5168 14.3959 27.7402 14.4871 27.9049 14.6492C28.0696 14.8114 28.162 15.0312 28.1618 15.2603C28.1617 15.4894 28.0689 15.7091 27.904 15.871C27.7391 16.0329 27.5155 16.1238 27.2825 16.1236ZM27.2825 12.5893C26.5619 12.5899 25.8711 12.8716 25.3616 13.3725C24.8521 13.8734 24.5656 14.5526 24.5649 15.2609C24.5649 15.5473 24.6137 15.8324 24.7087 16.1101L15.7323 20.8082C15.4834 20.4529 15.1503 20.1624 14.7618 19.9618C14.3733 19.7612 13.9411 19.6565 13.5022 19.6567C12.466 19.6567 11.5222 20.2404 11.0647 21.1511L3.00082 16.9703C2.1483 16.5304 1.51079 15.1516 1.57829 13.8956C1.6133 13.2406 1.8433 12.7318 2.19455 12.5352C2.41706 12.4123 2.68456 12.4222 2.96957 12.5684L3.02207 12.5967C5.1596 13.7027 12.1522 17.3243 12.4472 17.4582C12.901 17.6659 13.1535 17.7495 13.9285 17.3882L28.3837 9.99753C28.5962 9.91888 28.8437 9.71857 28.8437 9.41503C28.8437 8.99474 28.4012 8.82884 28.4 8.82884C27.5775 8.44173 26.3137 7.86046 25.0812 7.29271C22.4461 6.07978 19.4598 4.70586 18.1486 4.02996C17.016 3.44746 16.1048 3.93903 15.9423 4.03734L15.6273 4.19095C9.72468 7.06044 1.82455 10.9069 1.37454 11.176C0.570778 11.6578 0.0720204 12.6176 0.00701937 13.8084C-0.0929822 15.6972 0.885783 17.6671 2.28706 18.3885L10.8147 22.7118C10.9086 23.3468 11.2319 23.9275 11.7253 24.3476C12.2187 24.7677 12.8495 24.9993 13.5022 25C14.2152 24.9988 14.8991 24.7226 15.4071 24.2308C15.9151 23.739 16.2064 23.0709 16.2185 22.3701L25.6112 17.3648C26.0862 17.731 26.6774 17.9313 27.2825 17.9313C28.003 17.9307 28.6938 17.649 29.2033 17.1481C29.7128 16.6472 29.9993 15.9681 30 15.2597C29.9993 14.5513 29.7128 13.8722 29.2033 13.3713C28.6938 12.8704 28.003 12.5887 27.2825 12.5881" fill="white"/>
</svg>
