<?xml version="1.0" encoding="UTF-8"?>
<svg id="Layer_2" data-name="Layer 2" xmlns="http://www.w3.org/2000/svg" viewBox="0 0 103.48 36.18">
  <g id="Layer_1-2" data-name="Layer 1">
    <polygon class="cls-1" points=".75 36.18 0 35.52 8.27 26.07 13.97 27.2 19.78 16.75 25.87 19.19 30.5 19.19 34.67 21.27 37.03 12 45.24 17.81 48.43 12.5 53.47 6.19 58.57 12.64 60.81 21.58 64.63 22.54 66.97 10.81 73.23 14.57 76.15 14.57 77.29 9.03 81.41 2.61 84.32 16.28 90.13 8.88 94.18 6.19 95.68 11.94 98.1 5.52 102.71 0 103.48 .64 98.93 6.09 95.51 15.25 93.56 7.8 90.75 9.67 83.78 18.59 80.94 5.2 78.18 9.49 76.97 15.57 72.96 15.57 67.67 12.4 65.4 23.76 59.98 22.41 57.63 12.99 53.47 7.79 49.25 13.07 45.54 19.25 37.64 13.66 35.34 22.72 30.27 20.19 25.58 20.15 20.22 18.01 14.49 28.33 8.64 27.16 .75 36.18"/>
  </g>
</svg>