<?xml version="1.0" standalone="no"?>
<!DOCTYPE svg PUBLIC "-//W3C//DTD SVG 20010904//EN"
 "http://www.w3.org/TR/2001/REC-SVG-20010904/DTD/svg10.dtd">
<svg version="1.0" xmlns="http://www.w3.org/2000/svg"
 width="24.000000pt" height="24.000000pt" viewBox="0 0 24.000000 24.000000"
 preserveAspectRatio="xMidYMid meet">

<g transform="translate(0.000000,24.000000) scale(0.100000,-0.100000)"
stroke="none">
<path d="M64 211 c-60 -37 -69 -124 -18 -172 37 -35 113 -34 149 2 50 50 42
133 -17 169 -41 25 -74 25 -114 1z m117 -30 c39 -40 39 -82 0 -122 -40 -39
-82 -39 -122 0 -20 20 -29 39 -29 61 0 43 47 90 90 90 22 0 41 -9 61 -29z"/>
<path d="M110 160 c0 -5 5 -10 10 -10 6 0 10 5 10 10 0 6 -4 10 -10 10 -5 0
-10 -4 -10 -10z"/>
<path d="M110 100 c0 -16 5 -30 10 -30 6 0 10 14 10 30 0 17 -4 30 -10 30 -5
0 -10 -13 -10 -30z"/>
</g>
</svg>
