<?xml version="1.0" encoding="UTF-8"?>
<svg id="Layer_2" data-name="Layer 2" xmlns="http://www.w3.org/2000/svg" viewBox="0 0 23.08 23">
  <defs>
    <style>
      .cls-1 {
        fill: #715ff5;
      }
    </style>
  </defs>
  <g id="Layer_1-2" data-name="Layer 1">
    <path class="cls-1" d="M12.89,23l-.36-3.1c.67-.08,1.34-.24,1.97-.48l1.1,2.92c-.87,.33-1.78,.55-2.71,.66Zm-2.78,0c-.92-.11-1.83-.34-2.7-.67l1.11-2.91c.63,.24,1.29,.41,1.97,.49l-.38,3.1Zm7.95-1.93l-1.77-2.57c.56-.38,1.07-.84,1.52-1.34l2.33,2.08c-.62,.69-1.32,1.31-2.09,1.84Zm-13.11-.04c-.76-.53-1.46-1.15-2.07-1.85l2.34-2.06c.45,.51,.96,.96,1.52,1.35l-1.78,2.56Zm16.78-4.08l-2.75-1.46c.32-.6,.56-1.24,.73-1.89l3.03,.76c-.23,.9-.56,1.78-1,2.6Zm-20.43-.06c-.43-.83-.76-1.7-.98-2.6l3.03-.74c.16,.66,.4,1.3,.71,1.9l-2.76,1.44Zm21.77-5.3h-3.12v-.04c0-.68-.08-1.36-.24-2.02l3.03-.74c.22,.9,.33,1.83,.33,2.76v.04Zm-19.96-.06H0c0-.94,.12-1.87,.34-2.76l3.03,.75c-.16,.66-.25,1.33-.25,2.01Zm15.88-3.89c-.32-.6-.7-1.16-1.15-1.67l2.33-2.07c.62,.7,1.15,1.47,1.58,2.29l-2.76,1.45Zm-14.91-.02l-2.76-1.46c.43-.82,.97-1.59,1.58-2.28l2.33,2.07c-.45,.51-.84,1.07-1.16,1.67Zm12.24-3c-.56-.39-1.16-.7-1.79-.94l1.11-2.91c.87,.33,1.69,.77,2.46,1.3l-1.78,2.56Zm-9.56,0l-1.77-2.57c.77-.53,1.6-.96,2.46-1.29l1.1,2.92c-.63,.24-1.24,.56-1.8,.94Zm5.8-1.42c-.67-.08-1.36-.08-2.03,0L10.16,.08c.91-.11,1.87-.11,2.78,0l-.37,3.1Z"/>
  </g>
</svg>