<?xml version="1.0" standalone="no"?>
<!DOCTYPE svg PUBLIC "-//W3C//DTD SVG 20010904//EN"
 "http://www.w3.org/TR/2001/REC-SVG-20010904/DTD/svg10.dtd">
<svg version="1.0" xmlns="http://www.w3.org/2000/svg"
 width="48.000000pt" height="48.000000pt" viewBox="0 0 48.000000 48.000000"
 preserveAspectRatio="xMidYMid meet">

<g transform="translate(0.000000,48.000000) scale(0.100000,-0.100000)"
fill="#715ff5" stroke="none">
<path d="M210 415 c0 -14 -6 -25 -13 -25 -7 0 -26 -14 -43 -31 -27 -28 -29
-37 -32 -114 -3 -67 -8 -87 -23 -101 -43 -39 -28 -44 141 -44 169 0 184 5 141
44 -15 14 -20 34 -23 101 -3 77 -5 86 -32 114 -17 17 -36 31 -43 31 -7 0 -13
11 -13 25 0 21 -5 25 -30 25 -25 0 -30 -4 -30 -25z"/>
<path d="M202 68 c8 -22 37 -34 55 -22 33 21 26 34 -17 34 -28 0 -40 -4 -38
-12z"/>
</g>
</svg>
