<?xml version="1.0" encoding="UTF-8"?>
<svg id="Layer_2" data-name="Layer 2" xmlns="http://www.w3.org/2000/svg" viewBox="0 0 60 63.46">
  <defs>
    <style>
      .cls-1 {
        fill: #715ff5;
      }
    </style>
  </defs>
  <g id="Layer_1-2" data-name="Layer 1">
    <g>
      <path class="cls-1" d="M47.32,24.83c2.42,.7,4.91,1.81,5.55,2.11,1.43-3.83,1.48-7.7,.29-11.63C50.42,6.24,42.28,.06,32.75,0,22.98-.06,15.53,4.04,11.21,12.97c-.61,1.26-1.08,2.52-1.42,3.8,7.09,.25,22.57,3.97,23.04,4.17,9.05,.42,13.77,3.47,14.5,3.89Z"/>
      <path class="cls-1" d="M56.87,44.91c-1.25-.91-2.48-1.82-3.54-2.95-2.15-2.31-3.1-4.96-2.6-8.15,.33-2.11,1.04-4.07,1.81-6.03-.87-.53-5.16-1.9-5.16-1.9-1,2.56-1.88,3.41-3.13,4.66-2.9,1.96-3.84,1.76-6,1.74-3.38-.72-4.39-2.9-5.23-4.37-1.1-2.55-.88-6.12-.88-6.12,0,0-5.32-1.27-12.56-2.64-7.08-1.4-8.87-1.42-10.04-1.36-.85,3.99-.43,8.07,1.24,12.15,.72,1.75,1.59,3.47,1.79,5.4,.36,3.52-1.31,6.22-3.57,8.67-2,2.17-4.53,3.65-6.86,5.41-.95,.72-2.46,1.46-2.08,2.73,.46,1.5,2.21,1.13,3.49,1.16,4.76,.1,8.57-2.37,12.67-4.76-.59,1.33-1.14,2.47-1.6,3.64-.78,1.97-1.52,3.98-1.36,6.15,.1,1.34,.38,2.77,1.72,3.38,1.32,.61,2.45-.25,3.44-1.08,2.1-1.74,3.75-3.88,5.23-6.16,.95-1.47,1.86-2.96,2.91-4.36,.82-1.08,1.72-2.4,3.3-2.09,1.57,.3,1.92,1.88,2.33,3.16,.38,1.2,.55,2.48,.78,3.72,.51,2.76,.89,5.59,3.2,7.59,1.74,1.51,3.29,1.28,4.48-.69,1.1-1.82,1.52-3.83,1.47-5.93-.05-1.86-.12-3.72,.21-5.56,.15-.84,.26-1.9,1.33-2.17,.96-.24,1.59,.47,2.16,1.08,1.67,1.78,3.27,3.62,4.96,5.38,1.18,1.24,2.54,2.29,4.24,2.7,1.06,.26,2.3,.53,3.11-.5,.76-.96,.04-1.95-.38-2.82-.45-.95-1.09-1.81-1.7-2.68-.73-1.04-1.52-2.04-2.54-3.4,1.72,.9,2.97,1.71,4.42,2.04,.6,.14,1.28,.31,1.78-.28,.56-.66,.24-1.35-.06-1.94-.61-1.22-1.69-2.03-2.76-2.81ZM21.79,28.81c-1.25,0-2.26-1.01-2.26-2.26s1.01-2.26,2.26-2.26,2.26,1.01,2.26,2.26-1.01,2.26-2.26,2.26Z"/>
    </g>
  </g>
</svg>