<?xml version="1.0" encoding="utf-8"?>
<!-- Generator: Adobe Illustrator 25.4.1, SVG Export Plug-In . SVG Version: 6.00 Build 0)  -->
<svg version="1.1" id="Layer_1" xmlns="http://www.w3.org/2000/svg" xmlns:xlink="http://www.w3.org/1999/xlink" x="0px" y="0px"
	 viewBox="0 0 42 40" style="enable-background:new 0 0 42 40;" xml:space="preserve">
<style type="text/css">
	.st0{fill:#715FF5;}
	.st1{fill:#FF6666;}
</style>
<g>
	<g>
		<g>
			<path class="st0" d="M21,26c-3.31,0-6-2.69-6-6s2.69-6,6-6s6,2.69,6,6S24.31,26,21,26z M21,14.81c-2.86,0-5.19,2.33-5.19,5.19
				s2.33,5.19,5.19,5.19s5.19-2.33,5.19-5.19S23.86,14.81,21,14.81z"/>
			<g>
				<path class="st0" d="M23.66,22.12l-2.29-1.06v-4.94c0-0.28-0.23-0.51-0.51-0.51s-0.51,0.23-0.51,0.51v5.26c0,0,0,0.01,0,0.01
					c0,0.01,0,0.02,0,0.03c0,0.01,0,0.01,0,0.02c0,0.01,0,0.02,0,0.03c0,0.01,0,0.02,0.01,0.03c0,0.01,0,0.01,0.01,0.02
					c0,0.01,0.01,0.02,0.01,0.03c0,0.01,0,0.01,0.01,0.02c0,0.01,0.01,0.02,0.01,0.03c0,0.01,0.01,0.01,0.01,0.02
					c0,0.01,0.01,0.02,0.01,0.02c0,0.01,0.01,0.01,0.01,0.02c0,0.01,0.01,0.01,0.01,0.02c0.01,0.01,0.01,0.01,0.02,0.02
					c0,0.01,0.01,0.01,0.01,0.02c0.01,0.01,0.01,0.01,0.02,0.02c0,0,0.01,0.01,0.01,0.01c0.01,0.01,0.01,0.01,0.02,0.02
					c0.01,0,0.01,0.01,0.02,0.01c0.01,0.01,0.01,0.01,0.02,0.02c0.01,0.01,0.01,0.01,0.02,0.01c0.01,0,0.01,0.01,0.02,0.01
					c0.01,0.01,0.02,0.01,0.03,0.02c0,0,0.01,0,0.01,0.01l2.58,1.2c0.07,0.03,0.14,0.05,0.21,0.05c0.19,0,0.37-0.11,0.46-0.29
					C24.02,22.54,23.91,22.24,23.66,22.12z"/>
			</g>
		</g>
	</g>
</g>
</svg>
