<?xml version="1.0" encoding="UTF-8"?>
<svg id="Layer_2" data-name="Layer 2" xmlns="http://www.w3.org/2000/svg" viewBox="0 0 16.61 22.8">
  <g id="Layer_1-2" data-name="Layer 1">
    <path class="cls-1" d="M15.7,22.8H.91C.21,22.58,0,22.07,0,21.37c.02-3.53,0-7.07,0-10.6,0-.12,0-.24,.01-.36,.03-.38,.21-.68,.53-.85,.2-.1,.45-.15,.68-.17,.32-.03,.65,0,.98,0,0-1.07,0-2.1,0-3.13,0-.82,.1-1.62,.43-2.37C3.59,1.64,5.27,.33,7.7,.04c1.64-.19,3.12,.26,4.41,1.3,1.36,1.09,2.15,2.51,2.26,4.25,.07,1.17,.03,2.34,.04,3.52,0,.09,0,.17,0,.28,.34,0,.66,0,.98,0,.76,0,1.22,.45,1.22,1.22,0,3.66,0,7.32,0,10.98,0,.62-.26,.97-.85,1.18-.02,0-.04,.02-.05,.04Zm-3.56-13.43c0-.07,.01-.12,.01-.17,0-1.02,0-2.05,0-3.07,0-.28-.02-.57-.08-.84-.47-2.05-2.31-3.3-4.39-2.99-1.75,.26-3.15,1.82-3.2,3.59-.03,1.11-.01,2.23-.01,3.34,0,.04,0,.09,.02,.14h7.66Z"/>
  </g>
</svg>