<?xml version="1.0" encoding="UTF-8"?>
<svg id="Layer_2" data-name="Layer 2" xmlns="http://www.w3.org/2000/svg" viewBox="0 0 20.34 20.33">
  <defs>
    <style>
      .cls-1 {
        fill: #f7fcfe;
      }
    </style>
  </defs>
  <g id="Layer_1-2" data-name="Layer 1">
    <g>
      <path class="cls-1" d="M0,12.14C0,11.81,.27,11.53,.61,11.53H19.69c.17-.01,.34,.05,.47,.18,.23,.23,.24,.6,.02,.84h0s0,0,0,0h0s0,0,0,0c0,0,0,0,0,0,0,0,0,0,0,0,0,0,0,0,0,0,0,0,0,0,0,0,0,0,0,0,0,0,0,0,0,0,0,0,0,0,0,0,0,0,0,0,0,0,0,0,0,0,0,0,0,0h0s-7.59,7.59-7.59,7.59c-.24,.24-.62,.24-.86,0s-.24-.62,0-.86l6.55-6.55H.61C.27,12.75,0,12.48,0,12.14Z"/>
      <path class="cls-1" d="M20.34,8.19c0,.34-.27,.61-.61,.61H.65c-.17,.01-.34-.05-.47-.18-.23-.23-.24-.6-.02-.84H.16s0,0,0,0H.16s0,0,0,0c0,0,0,0,0,0,0,0,0,0,0,0,0,0,0,0,0,0,0,0,0,0,0,0,0,0,0,0,0,0,0,0,0,0,0,0,0,0,0,0,0,0,0,0,0,0,0,0,0,0,0,0,0,0h0S7.77,.18,7.77,.18c.24-.24,.62-.24,.86,0,.24,.24,.24,.62,0,.86L2.07,7.59H19.73c.34,0,.61,.27,.61,.61Z"/>
    </g>
  </g>
</svg>