<?xml version="1.0" encoding="UTF-8"?>
<svg id="Layer_2" data-name="Layer 2" xmlns="http://www.w3.org/2000/svg" viewBox="0 0 32.48 32.48">
  <defs>
    <style>
      .cls-1 {
        fill: #6eebd0;
      }

      .cls-2 {
        fill: #715ff5;
      }
    </style>
  </defs>
  <g id="Layer_1-2" data-name="Layer 1">
    <g>
      <circle class="cls-2" cx="16.24" cy="16.24" r="16.24"/>
      <g>
        <path class="cls-1" d="M17.91,21.85c-.28,0-.51-.23-.51-.51V8.18c0-.14,.04-.29,.15-.4,.19-.19,.51-.2,.71-.02h0s0,0,0,0h0s0,0,0,0c0,0,0,0,0,0,0,0,0,0,0,0,0,0,0,0,0,0,0,0,0,0,0,0,0,0,0,0,0,0,0,0,0,0,0,0,0,0,0,0,0,0,0,0,0,0,0,0,0,0,0,0,0,0h0s6.42,6.43,6.42,6.43c.2,.2,.2,.53,0,.73s-.53,.2-.73,0l-5.55-5.55v11.95c0,.28-.23,.51-.51,.51Z"/>
        <path class="cls-1" d="M14.57,10.63c.28,0,.51,.23,.51,.51v13.16c0,.14-.04,.29-.15,.4-.19,.19-.51,.2-.71,.02h0s0,0,0,0h0s0,0,0,0c0,0,0,0,0,0,0,0,0,0,0,0,0,0,0,0,0,0,0,0,0,0,0,0,0,0,0,0,0,0,0,0,0,0,0,0,0,0,0,0,0,0,0,0,0,0,0,0,0,0,0,0,0,0h0s-6.42-6.43-6.42-6.43c-.2-.2-.2-.53,0-.73s.53-.2,.73,0l5.55,5.55V11.14c0-.28,.23-.51,.51-.51Z"/>
      </g>
    </g>
  </g>
</svg>