<svg width="24" height="24" viewBox="0 0 24 24" fill="none" xmlns="http://www.w3.org/2000/svg">
<path fill-rule="evenodd" clip-rule="evenodd" d="M6 8.53328C5.63181 8.53328 5.33333 8.83176 5.33333 9.19995V17.2C5.33333 17.5681 5.63181 17.8666 6 17.8666H18C18.3682 17.8666 18.6667 17.5681 18.6667 17.2V9.19995C18.6667 8.83176 18.3682 8.53328 18 8.53328H6ZM4 9.19995C4 8.09538 4.89543 7.19995 6 7.19995H18C19.1046 7.19995 20 8.09538 20 9.19995V17.2C20 18.3045 19.1046 19.2 18 19.2H6C4.89543 19.2 4 18.3045 4 17.2V9.19995Z" fill="#715FF5"/>
<rect x="9.6001" y="8" width="10.4" height="1.6" transform="rotate(90 9.6001 8)" fill="#715FF5"/>
<mask id="mask0_4469_9168" style="mask-type:alpha" maskUnits="userSpaceOnUse" x="4" y="4" width="15" height="6">
<path d="M4 4.80005H18.4V8.00005H12.2286L4 9.60005V4.80005Z" fill="#D9D9D9"/>
</mask>
<g mask="url(#mask0_4469_9168)">
<path fill-rule="evenodd" clip-rule="evenodd" d="M5.99024 6.13338C5.62385 6.13338 5.32683 6.43186 5.32683 6.80005V14.8C5.32683 15.1682 5.62385 15.4667 5.99024 15.4667H15.6098C15.9761 15.4667 16.2732 15.1682 16.2732 14.8V6.80005C16.2732 6.43186 15.9761 6.13338 15.6098 6.13338H5.99024ZM4 6.80005C4 5.69548 4.89106 4.80005 5.99024 4.80005H15.6098C16.7089 4.80005 17.6 5.69548 17.6 6.80005V14.8C17.6 15.9046 16.7089 16.8 15.6098 16.8H5.99024C4.89106 16.8 4 15.9046 4 14.8V6.80005Z" fill="#715FF5"/>
</g>
</svg>
