<?xml version="1.0" encoding="UTF-8"?>
<svg id="Capa_1" data-name="Capa 1" xmlns="http://www.w3.org/2000/svg" viewBox="0 0 236.13 293.9">
  <defs>
  </defs>
  <path class="cls-1" d="M189.86,104.49c10.05,2.91,23.73,8.93,28.41,11.1,3.96-14.97,3.48-30.08-1.14-45.35C204.56,28.63,167.23,.25,123.56,0c-2.84-.02-5.63,.05-8.38,.18C74.48,2.21,43.32,21.13,24.77,59.48c-1.32,2.74-2.5,5.49-3.55,8.25,33.82,2.11,100.06,18.08,102.15,18.93,41.5,1.91,63.16,15.91,66.48,17.83Z"/>
  <path class="cls-1" d="M233.27,250.4c-1.82-4.34-4.41-8.3-6.87-12.27-.16-.25-.36-.6-.61-1.04,0-.01-.01-.03-.02-.04-.24-.42-.51-.92-.83-1.51-.13-.23-.28-.53-.41-.78-.21-.4-.41-.77-.64-1.22-.23-.43-.48-.93-.72-1.41-.17-.34-.33-.65-.51-1.01-.3-.6-.63-1.25-.95-1.9-.15-.3-.29-.58-.44-.89-.34-.69-.7-1.43-1.05-2.17-.16-.32-.3-.62-.46-.96-.37-.77-.75-1.59-1.14-2.41-.16-.33-.31-.65-.47-.99-.4-.86-.81-1.76-1.22-2.66-.15-.32-.29-.63-.44-.96-.41-.9-.82-1.83-1.23-2.76-.16-.36-.31-.7-.47-1.06-.41-.93-.81-1.88-1.21-2.84-.16-.37-.31-.73-.47-1.11-.4-.95-.79-1.91-1.17-2.87-.16-.39-.32-.78-.48-1.18-.37-.94-.74-1.88-1.1-2.82-.16-.42-.33-.84-.48-1.26-.35-.92-.68-1.83-1.01-2.75-.16-.44-.32-.89-.48-1.33-.31-.89-.6-1.76-.89-2.64-.15-.46-.31-.92-.46-1.38-.27-.85-.52-1.68-.77-2.52-.14-.46-.28-.93-.41-1.39-.23-.8-.43-1.58-.63-2.35-.18-.71-.38-1.42-.54-2.11-2.75-7.43-4.26-6.4-4.26-14.78s7.52-25.02,11.79-37.78c1.61-3.65,2.96-7.43,4.08-11.29,.24-.7,.42-1.4,.64-2.09-6.3-3.08-26.81-10.6-26.81-10.6-4.57,11.75-8.63,15.65-14.37,21.39-13.3,8.97-17.63,8.06-27.5,7.96-15.51-3.32-20.15-13.3-23.97-20.04-5.04-11.68-4.03-28.07-4.03-28.07,0,0-24.41-5.81-57.58-12.12-27-5.36-37.22-6.3-42.98-6.32-.52,1.61-1.01,3.22-1.45,4.83,0,0,0,0,0,0-.67,1.77-1.2,4.07-1.52,6.78-.85,4.56-1.33,9.15-1.46,13.76,.24,8.22,1.72,16.4,4.57,24.54,1.13,3.86,2.48,7.64,4.08,11.29,2.2,6.58,5.27,14.13,7.72,21.09,2.3,6.53,4.07,12.53,4.07,16.69,0,8.39-1.51,7.35-4.26,14.78-.16,.68-.35,1.4-.54,2.11-.2,.78-.4,1.55-.63,2.35-.13,.46-.27,.92-.41,1.39-.25,.83-.5,1.67-.77,2.52-.15,.46-.3,.92-.46,1.38-.29,.88-.58,1.75-.89,2.64-.16,.44-.32,.89-.48,1.33-.33,.92-.66,1.83-1.01,2.75-.16,.42-.32,.84-.48,1.26-.36,.94-.72,1.88-1.1,2.82-.16,.4-.32,.79-.48,1.18-.39,.96-.78,1.92-1.17,2.87-.16,.37-.31,.74-.47,1.11-.4,.95-.81,1.9-1.21,2.84-.16,.36-.31,.7-.47,1.06-.41,.93-.82,1.86-1.23,2.76-.15,.33-.29,.64-.44,.96-.41,.9-.82,1.8-1.22,2.66-.16,.34-.31,.66-.47,.99-.38,.82-.77,1.63-1.14,2.41-.16,.33-.31,.63-.46,.96-.36,.74-.72,1.48-1.05,2.17-.15,.31-.29,.59-.44,.89-.32,.65-.65,1.3-.95,1.9-.18,.36-.34,.67-.51,1.01-.25,.48-.5,.98-.72,1.41-.23,.45-.43,.82-.64,1.22-.14,.26-.29,.55-.41,.78-.31,.58-.59,1.08-.83,1.51,0,.01-.01,.03-.02,.04-.25,.43-.45,.79-.61,1.04,0,0,0,0,0,0-2.46,3.96-5.05,7.92-6.87,12.27-1.67,3.98-4.59,8.53-1.52,12.93,3.29,4.71,8.29,3.46,12.58,2.29,6.84-1.87,12.34-6.69,17.11-12.37,6.8-8.09,13.28-16.53,20.03-24.68,.51-.61,1.03-1.25,1.57-1.86,1.62-1.82,3.45-3.39,5.79-3.32,.45,.01,.91,.08,1.4,.22,4.32,1.24,4.78,6.07,5.38,9.93,.33,2.1,.55,4.21,.71,6.33,.31,4.23,.32,8.49,.26,12.76-.03,2.13-.09,4.26-.13,6.4-.21,9.65-1.53,18.88,2.91,27.2,4.82,9.03,11.08,10.08,18.1,3.18,9.33-9.17,13.86-22.12,15.93-34.79,.47-2.86,.87-5.75,1.34-8.61,.24-1.43,.49-2.86,.79-4.27,.29-1.41,.63-2.81,1.01-4.19,.41-1.48,.81-3.03,1.27-4.56,.46-1.53,.99-3.02,1.66-4.38,.34-.68,.71-1.32,1.13-1.91,.84-1.19,1.87-2.18,3.17-2.86,.65-.34,1.36-.61,2.16-.78,.45-.1,.89-.16,1.32-.18,.42-.02,2.05-.02,2.48,0s.86,.08,1.32,.18c.79,.17,1.51,.44,2.16,.78,1.3,.68,2.33,1.68,3.17,2.86,1.26,1.78,2.1,4.01,2.8,6.3,.46,1.53,.86,3.08,1.27,4.56,.39,1.38,.72,2.78,1.01,4.19,.88,4.24,1.43,8.59,2.13,12.88,2.07,12.67,6.6,25.63,15.93,34.79,7.02,6.9,13.28,5.85,18.1-3.18,.56-1.04,1.02-2.09,1.41-3.16,2.72-7.47,1.69-15.59,1.5-24.04-.05-2.13-.1-4.26-.13-6.4-.06-4.26-.05-8.52,.26-12.76,.15-2.12,.38-4.23,.71-6.33,.6-3.86,1.05-8.69,5.38-9.93,.49-.14,.95-.21,1.4-.22,2.34-.06,4.16,1.5,5.79,3.32,.54,.61,1.06,1.24,1.57,1.86,0,0,0,0,0,0,6.75,8.15,13.23,16.59,20.03,24.68,4.77,5.67,10.27,10.5,17.11,12.37,4.29,1.17,9.29,2.41,12.58-2.29,3.07-4.4,.14-8.95-1.52-12.93ZM72.81,122.72c-5.71,0-10.34-4.63-10.34-10.34s4.63-10.34,10.34-10.34,10.34,4.63,10.34,10.34-4.63,10.34-10.34,10.34Z"/>
</svg>