<svg width="22" height="26" viewBox="0 0 22 26" fill="none" xmlns="http://www.w3.org/2000/svg">
<path d="M17.4865 9.27432C18.3687 9.52977 19.5698 10.0577 19.9806 10.2474C20.3284 8.93453 20.2861 7.60892 19.8809 6.26909C18.7766 2.61881 15.4998 0.129912 11.6647 0.107543C11.4157 0.106524 11.1706 0.111951 10.9295 0.123824C7.3554 0.30185 4.61941 1.96166 2.99073 5.32551C2.87469 5.56559 2.77101 5.80688 2.67969 6.04935C5.64891 6.23399 11.4656 7.6354 11.6489 7.71017C15.2927 7.87803 17.1943 9.10647 17.4865 9.27432Z" fill="white"/>
<path d="M21.2989 22.0753C21.1391 21.6943 20.9115 21.3469 20.6956 20.9994C20.6819 20.9771 20.6641 20.9465 20.6422 20.9084L20.6407 20.9048C20.6192 20.8677 20.5953 20.824 20.5678 20.7731C20.5572 20.7522 20.5434 20.7268 20.5317 20.7044C20.5129 20.6693 20.4955 20.6368 20.4752 20.597C20.4553 20.5593 20.4329 20.5151 20.4116 20.4734C20.3962 20.4439 20.3821 20.4169 20.3662 20.3854C20.3397 20.333 20.3112 20.2756 20.2831 20.2185C20.2699 20.1921 20.2577 20.1677 20.2439 20.1402C20.2144 20.0797 20.1829 20.0151 20.1513 19.95C20.1375 19.9215 20.1248 19.8951 20.1106 19.866C20.078 19.7979 20.0444 19.7266 20.0108 19.6549C19.9971 19.6254 19.9838 19.598 19.9701 19.568C19.9345 19.4922 19.8988 19.4138 19.8627 19.3345C19.8499 19.3065 19.8373 19.279 19.8245 19.2505C19.7883 19.1712 19.7528 19.0898 19.7166 19.0079C19.7028 18.9769 19.6891 18.9464 19.6753 18.9148C19.6397 18.8329 19.6045 18.7495 19.5689 18.6661C19.5552 18.6335 19.5415 18.6015 19.5277 18.5689C19.4926 18.4855 19.4584 18.4015 19.4243 18.3176C19.4106 18.283 19.3963 18.2484 19.3826 18.2138C19.3495 18.1314 19.3179 18.0491 19.2859 17.9661C19.2715 17.9295 19.2573 17.8929 19.2436 17.8557C19.213 17.7748 19.184 17.695 19.155 17.6146C19.1413 17.5754 19.1265 17.5368 19.1133 17.4981C19.0857 17.4203 19.0603 17.3435 19.0349 17.2667C19.0211 17.2261 19.0073 17.1858 18.9947 17.1456C18.9708 17.0708 18.9488 16.9976 18.9269 16.9248C18.9147 16.8843 18.902 16.843 18.8908 16.8027C18.8709 16.7326 18.8531 16.6643 18.8353 16.5962C18.8195 16.5341 18.8022 16.4711 18.7885 16.4116C18.5471 15.7595 18.4148 15.85 18.4148 15.1145C18.4148 14.3611 19.0751 12.9196 19.4503 11.8005C19.5913 11.4783 19.711 11.1473 19.8087 10.8096C19.8307 10.7485 19.8459 10.687 19.8653 10.626C19.3129 10.3563 17.5111 9.6961 17.5111 9.6961C17.1104 10.7272 16.7536 11.0685 16.2494 11.5726C15.082 12.359 14.7017 12.2792 13.8347 12.2705C12.4727 11.979 12.066 11.1041 11.73 10.512C11.2875 9.48701 11.3761 8.04948 11.3761 8.04948C11.3761 8.04948 9.23277 7.53981 6.32 6.98637C3.94908 6.51658 3.05152 6.43367 2.54586 6.43164C2.49953 6.5725 2.45681 6.71395 2.41857 6.85587H2.4191C2.35093 7.04805 2.306 7.24768 2.28529 7.45052C2.21141 7.84897 2.16851 8.25253 2.15698 8.65759C2.17828 9.39142 2.31363 10.1175 2.55817 10.8098C2.65583 11.1476 2.77573 11.4786 2.91709 11.8007C3.11006 12.378 3.3794 13.0403 3.59472 13.6507C3.79737 14.2235 3.95266 14.75 3.95266 15.1147C3.95266 15.8502 3.82028 15.7597 3.57895 16.4118C3.56461 16.4713 3.54741 16.5344 3.53156 16.5964C3.51429 16.6646 3.49649 16.7327 3.47661 16.8029C3.4649 16.8431 3.45219 16.8843 3.44048 16.925C3.41857 16.9978 3.3967 17.071 3.37276 17.1458C3.35955 17.186 3.34581 17.2261 3.33252 17.2669C3.30708 17.3437 3.28167 17.4205 3.25412 17.4983C3.24038 17.537 3.22612 17.5756 3.21193 17.6148C3.1834 17.6952 3.15441 17.775 3.12385 17.8559C3.11011 17.893 3.09532 17.9297 3.08105 17.9663C3.04951 18.0492 3.01745 18.1318 2.98485 18.214C2.97111 18.2486 2.95685 18.2832 2.94259 18.3178C2.90844 18.4017 2.87439 18.4856 2.83984 18.5691C2.82603 18.6017 2.81229 18.6337 2.79855 18.6663C2.76294 18.7497 2.72729 18.8331 2.69162 18.915C2.67793 18.9465 2.66464 18.9771 2.651 19.0081C2.61487 19.09 2.57869 19.1714 2.54309 19.2507C2.52981 19.2792 2.51764 19.3067 2.50441 19.3347C2.46875 19.414 2.43255 19.4924 2.39748 19.5681C2.38314 19.5982 2.36993 19.6256 2.35619 19.6551C2.32261 19.7267 2.28899 19.7981 2.25645 19.8662C2.24266 19.8952 2.22942 19.9216 2.21569 19.9502C2.18462 20.0153 2.15306 20.0799 2.12302 20.1404C2.10981 20.1679 2.09757 20.1923 2.08434 20.2187C2.05581 20.2757 2.02728 20.3332 2.00082 20.3856C1.98505 20.4171 1.97079 20.4441 1.956 20.4736C1.93409 20.5153 1.91222 20.5595 1.89239 20.5972C1.87203 20.6369 1.85416 20.6694 1.83586 20.7046C1.82362 20.727 1.81041 20.7524 1.7992 20.7733C1.77218 20.8241 1.74778 20.8679 1.7269 20.905L1.72486 20.9086C1.70336 20.9468 1.68565 20.9773 1.67191 20.9996C1.45552 21.3471 1.22845 21.6945 1.06857 22.0755C0.921979 22.4249 0.665398 22.8243 0.934763 23.2098C1.22341 23.6228 1.66283 23.514 2.03903 23.4113C2.63982 23.2475 3.12297 22.8243 3.54201 22.3262C4.13937 21.6167 4.70845 20.876 5.30106 20.1609C5.34532 20.107 5.39117 20.0515 5.43848 19.9981C5.58106 19.8384 5.74094 19.7011 5.9466 19.7067C5.98801 19.7076 6.0291 19.7142 6.06878 19.726C6.44858 19.8349 6.48882 20.2586 6.54125 20.5974C6.56978 20.7815 6.58961 20.9667 6.60337 21.1524C6.6304 21.5237 6.6319 21.8976 6.62629 22.272C6.62327 22.4587 6.61869 22.6459 6.61463 22.8331C6.59573 23.68 6.48015 24.4888 6.87018 25.2193C7.29323 26.0119 7.84269 26.1033 8.45918 25.498C9.27833 24.6938 9.67647 23.5574 9.85818 22.4454C9.89948 22.1948 9.93465 21.9409 9.9763 21.6896C9.99723 21.5639 10.0196 21.4393 10.0456 21.3152C10.0716 21.1916 10.1005 21.069 10.1347 20.9479C10.1709 20.8182 10.206 20.6819 10.2467 20.5481C10.2843 20.416 10.3332 20.2873 10.3929 20.1635C10.4214 20.105 10.4546 20.0489 10.4921 19.9957C10.5634 19.8909 10.6587 19.8048 10.7701 19.7444C10.8299 19.7131 10.8936 19.69 10.9595 19.6757C10.9975 19.6674 11.0362 19.6621 11.075 19.6599C11.1122 19.6574 11.2553 19.6574 11.2925 19.6599C11.3314 19.6621 11.37 19.6674 11.408 19.6757C11.474 19.69 11.5377 19.713 11.5975 19.7444C11.709 19.8048 11.8045 19.8909 11.8759 19.9957C11.9864 20.1518 12.0602 20.3472 12.1213 20.5481C12.1621 20.6818 12.1967 20.8182 12.2333 20.9479C12.2669 21.069 12.2964 21.1914 12.3219 21.3152C12.3998 21.687 12.4477 22.069 12.5093 22.4454C12.6915 23.5574 13.0892 24.6938 13.9084 25.498C14.5254 26.1033 15.0743 26.0118 15.4978 25.2193C15.5456 25.1297 15.5869 25.0369 15.6216 24.9415C15.8603 24.2858 15.7697 23.5737 15.7534 22.8331C15.7493 22.6459 15.7442 22.4587 15.7417 22.272C15.7361 21.8976 15.7376 21.5238 15.7646 21.1524C15.7778 20.9667 15.7977 20.7815 15.8262 20.5974C15.8791 20.2586 15.9188 19.8349 16.2986 19.726C16.3385 19.7141 16.3798 19.7076 16.4213 19.7067C16.6265 19.7011 16.7869 19.8384 16.9295 19.9981C16.9768 20.0515 17.0221 20.107 17.0669 20.1609C17.6595 20.8761 18.2282 21.6167 18.8259 22.3262C19.2444 22.8242 19.7276 23.2475 20.3283 23.4113C20.7051 23.5139 21.1445 23.6229 21.4326 23.2098C21.7017 22.8241 21.4451 22.4248 21.2989 22.0753ZM7.21061 10.8743C7.031 10.8744 6.85542 10.8212 6.70606 10.7215C6.5567 10.6219 6.44029 10.4802 6.37153 10.3144C6.30278 10.1486 6.28478 9.96618 6.31981 9.79018C6.35483 9.61418 6.44132 9.45251 6.56832 9.32562C6.69532 9.19874 6.85713 9.11233 7.03329 9.07733C7.20944 9.04234 7.39203 9.06032 7.55795 9.12901C7.72388 9.19771 7.86569 9.31402 7.96544 9.46325C8.0652 9.61247 8.11841 9.7879 8.11837 9.96735C8.11832 10.2079 8.02267 10.4386 7.85243 10.6087C7.68219 10.7787 7.45131 10.8743 7.21056 10.8744L7.21061 10.8743Z" fill="white"/>
</svg>
