<svg width="33" height="32" viewBox="0 0 33 32" fill="none" xmlns="http://www.w3.org/2000/svg">
<path d="M10.8749 19.0466C10.71 18.648 10.5228 18.259 10.3144 17.8813C10.1806 17.7372 10.0027 17.6417 9.80869 17.6098C9.55987 17.5572 9.30806 17.5196 9.05471 17.4974C8.97631 17.4956 8.89912 17.4776 8.82803 17.4445C8.75695 17.4115 8.69349 17.364 8.64169 17.3051C8.58989 17.2462 8.55089 17.1773 8.52711 17.1025C8.50332 17.0278 8.49526 16.949 8.5035 16.871C8.49883 16.2884 8.49883 15.7071 8.5035 15.1271C8.49589 15.0491 8.50467 14.9704 8.52917 14.8959C8.55368 14.8214 8.59343 14.7529 8.64589 14.6946C8.69834 14.6363 8.7623 14.5896 8.8338 14.5575C8.90529 14.5253 8.98271 14.5084 9.06111 14.5078C9.31339 14.474 9.56571 14.4408 9.81858 14.4052C9.97411 14.3893 10.1224 14.3316 10.2479 14.2382C10.3733 14.1449 10.4712 14.0194 10.5312 13.875C10.6191 13.6793 10.7007 13.4806 10.7829 13.2819C10.8436 13.1467 10.8658 12.9973 10.8472 12.8502C10.8286 12.7031 10.7699 12.564 10.6774 12.4481C10.5131 12.2232 10.3412 12.0036 10.1763 11.7793C10.1249 11.723 10.0852 11.6568 10.0599 11.5849C10.0346 11.5129 10.024 11.4365 10.0288 11.3604C10.0337 11.2842 10.0538 11.2098 10.0881 11.1416C10.1223 11.0735 10.17 11.0129 10.2282 10.9635C10.643 10.5444 11.0604 10.1284 11.4802 9.7155C11.5284 9.65908 11.5874 9.61287 11.6537 9.57955C11.72 9.54623 11.7923 9.5265 11.8664 9.52151C11.9404 9.51652 12.0147 9.52635 12.0849 9.55046C12.155 9.57457 12.2197 9.61247 12.275 9.66191C12.508 9.83088 12.7324 10.0068 12.9625 10.1781C13.0824 10.272 13.225 10.3322 13.3758 10.3527C13.5267 10.3732 13.6803 10.3531 13.8208 10.2947C14.8043 9.92993 14.8404 9.88682 14.9803 8.84213C15.084 8.06838 15.1609 8.00195 15.9486 8.00195C16.4345 8.00195 16.9205 8.00195 17.4052 8.00195C17.4791 7.99575 17.5535 8.00438 17.6241 8.0273C17.6946 8.05022 17.7599 8.08696 17.816 8.13541C17.8722 8.18386 17.9181 8.24303 17.9511 8.30945C17.9841 8.37587 18.0036 8.44823 18.0083 8.52225C18.0497 8.78969 18.0828 9.05829 18.116 9.32631C18.1376 9.49178 18.2013 9.64894 18.301 9.78278C18.4006 9.91662 18.533 10.0227 18.6853 10.0908C18.9627 10.2731 19.2954 10.3517 19.625 10.3129C19.9546 10.2742 20.26 10.1204 20.4874 9.87866C21.1038 9.3368 21.2181 9.37932 21.7961 9.95789C22.1282 10.29 22.4632 10.6192 22.7935 10.9536C22.8546 11.0028 22.9049 11.0641 22.941 11.1336C22.9772 11.2032 22.9985 11.2795 23.0035 11.3578C23.0086 11.436 22.9974 11.5144 22.9706 11.5881C22.9438 11.6618 22.9019 11.729 22.8477 11.7857C22.6857 12.0024 22.5092 12.2093 22.3618 12.4353C22.2714 12.5649 22.2117 12.7133 22.187 12.8694C22.1714 13.2278 22.2829 13.5802 22.5021 13.8643C22.7212 14.1483 23.0337 14.3457 23.3843 14.4216C23.5889 14.4536 23.7922 14.4798 23.9984 14.509C24.0724 14.5134 24.1448 14.5325 24.2113 14.5651C24.2778 14.5978 24.3373 14.6433 24.3861 14.6991C24.4348 14.7548 24.472 14.8198 24.4955 14.8901C24.519 14.9603 24.5283 15.0346 24.5228 15.1085C24.5259 15.6974 24.5259 16.2866 24.5228 16.8763C24.5307 16.9522 24.523 17.0289 24.5001 17.1017C24.4772 17.1744 24.4396 17.2418 24.3898 17.2995C24.3399 17.3573 24.2787 17.4042 24.21 17.4374C24.1413 17.4706 24.0666 17.4894 23.9903 17.4927C23.7392 17.5317 23.4869 17.565 23.2329 17.5982C23.0808 17.6111 22.9354 17.6665 22.8133 17.758C22.6911 17.8494 22.5971 17.9733 22.5418 18.1156C22.1025 19.1742 22.0233 19.1736 22.7656 20.1111C23.1087 20.544 23.0884 20.7561 22.7015 21.1406C22.3292 21.5112 21.9586 21.8841 21.5851 22.2535C21.5356 22.3197 21.4724 22.3744 21.3998 22.4138C21.3272 22.4533 21.2469 22.4766 21.1644 22.4821C21.082 22.4876 20.9993 22.4753 20.9221 22.4459C20.8449 22.4165 20.7749 22.3707 20.717 22.3118C20.5259 22.169 20.3371 22.0205 20.1449 21.8806C20.0315 21.7905 19.8961 21.7323 19.7528 21.7118C19.6094 21.6913 19.4632 21.7094 19.3291 21.7641C19.0833 21.8567 18.8403 21.9575 18.6025 22.0688C18.4664 22.1275 18.3484 22.2217 18.261 22.3415C18.1736 22.4613 18.1199 22.6023 18.1056 22.7499C18.0747 22.9865 18.0426 23.223 18.0077 23.459C18.0043 23.5352 17.9856 23.6099 17.9527 23.6787C17.9197 23.7475 17.8732 23.8088 17.8158 23.8591C17.7585 23.9094 17.6916 23.9476 17.6191 23.9714C17.5466 23.9951 17.4701 24.004 17.3941 23.9974C16.8053 24.0009 16.2161 24.0009 15.6264 23.9974C15.5504 24.0041 15.4738 23.9951 15.4014 23.9711C15.329 23.9471 15.2623 23.9085 15.2054 23.8576C15.1485 23.8068 15.1026 23.7448 15.0706 23.6755C15.0386 23.6063 15.0212 23.5312 15.0193 23.455C14.9849 23.219 14.9534 22.9818 14.9202 22.7453C14.904 22.5978 14.8489 22.4573 14.7606 22.3382C14.6722 22.219 14.5538 22.1254 14.4174 22.0671C14.1797 21.957 13.9361 21.8556 13.6909 21.7629C13.5609 21.7096 13.4193 21.6911 13.28 21.7093C13.1407 21.7275 13.0086 21.7817 12.8967 21.8666C12.684 22.0205 12.4783 22.1848 12.2657 22.3386C12.2104 22.3883 12.1457 22.4263 12.0753 22.4503C12.005 22.4743 11.9306 22.4839 11.8565 22.4785C11.7824 22.473 11.7102 22.4527 11.6441 22.4186C11.5781 22.3846 11.5196 22.3375 11.4721 22.2803C11.0519 21.8678 10.6346 21.452 10.2206 21.0329C10.1076 20.9346 10.038 20.7957 10.0271 20.6463C10.0162 20.497 10.0648 20.3494 10.1623 20.2358C10.3167 20.0231 10.4927 19.828 10.6314 19.6031C10.7262 19.4238 10.8076 19.2378 10.8749 19.0466ZM16.6 12.9871C15.9929 12.9717 15.3948 13.1361 14.8809 13.4598C14.367 13.7835 13.9604 14.2519 13.7121 14.8062C13.4638 15.3604 13.385 15.9757 13.4856 16.5746C13.5862 17.1736 13.8616 17.7294 14.2773 18.1721C14.693 18.6149 15.2303 18.9248 15.8217 19.0629C16.4131 19.201 17.0322 19.1611 17.601 18.9482C18.1697 18.7353 18.6629 18.3589 19.0183 17.8665C19.3737 17.374 19.5755 16.7874 19.5983 16.1806C19.6133 15.7733 19.5473 15.3672 19.4044 14.9856C19.2614 14.604 19.0443 14.2545 18.7656 13.9573C18.4868 13.6601 18.1518 13.4211 17.7801 13.254C17.4084 13.087 17.0073 12.9953 16.6 12.9842V12.9871Z" fill="#F7FCFE"/>
</svg>
