<svg width="33" height="32" viewBox="0 0 33 32" fill="none" xmlns="http://www.w3.org/2000/svg">
<path d="M23.3379 14.4524C23.3379 14.5794 23.2875 14.7012 23.1977 14.791C23.1079 14.8808 22.9861 14.9312 22.8591 14.9312H10.1706C10.0757 14.9369 9.98119 14.9143 9.89915 14.8662C9.8171 14.8181 9.75116 14.7466 9.70981 14.661C9.66846 14.5753 9.65351 14.4793 9.66686 14.3851C9.68021 14.2909 9.7213 14.2028 9.78483 14.132H9.78878L9.79427 14.1265L15.78 8.14008C15.8698 8.05031 15.9916 7.99993 16.1187 8C16.2457 8.00007 16.3675 8.05062 16.4573 8.14049C16.547 8.23035 16.5974 8.3522 16.5973 8.47922C16.5972 8.60624 16.5468 8.72802 16.4569 8.81778L11.2893 13.9853H22.8512C22.9776 13.983 23.0997 14.0308 23.191 14.1183C23.2822 14.2059 23.335 14.326 23.3379 14.4524Z" fill="white"/>
<path d="M9.66211 17.5481C9.66211 17.4211 9.71252 17.2993 9.80233 17.2095C9.89214 17.1197 10.014 17.0692 10.141 17.0692H22.8294C22.9243 17.0635 23.0189 17.0862 23.101 17.1343C23.183 17.1824 23.2489 17.2538 23.2902 17.3395C23.3316 17.4252 23.3465 17.5212 23.3332 17.6154C23.3198 17.7096 23.2787 17.7976 23.2152 17.8684L23.2105 17.874L17.2248 23.8604C17.1803 23.9048 17.1276 23.9401 17.0695 23.9641C17.0113 23.9881 16.949 24.0005 16.8861 24.0005C16.8232 24.0004 16.7609 23.988 16.7028 23.9639C16.6447 23.9398 16.592 23.9045 16.5476 23.86C16.5031 23.8155 16.4679 23.7627 16.4439 23.7046C16.4198 23.6464 16.4074 23.5842 16.4074 23.5213C16.4075 23.4584 16.4199 23.3961 16.444 23.338C16.4681 23.2799 16.5035 23.2271 16.548 23.1827L21.7154 18.0152H10.1537C10.0907 18.0169 10.0279 18.0063 9.96904 17.9837C9.91019 17.9612 9.85639 17.9273 9.81071 17.8838C9.76503 17.8404 9.72845 17.7884 9.70294 17.7308C9.67743 17.6732 9.66354 17.6111 9.66211 17.5481Z" fill="white"/>
</svg>
